<svg width="14" height="14" viewBox="0 0 14 14" fill="none" xmlns="http://www.w3.org/2000/svg">
<g clip-path="url(#clip0)">
<path d="M7.06494 3.05456V13.3382L11.83 10.3244V0.733105L11.1988 0.519287L7.06494 3.05456Z" fill="#FFE056"/>
<path d="M7.35005 3.1665V13.44L2.58496 10.4261V0.845044L3.21623 0.631226L7.35005 3.1665Z" fill="#20BE0E"/>
<path d="M11.0664 1.01818C11.27 1.01818 11.4635 1.19127 11.4635 1.43564V9.90691C11.4635 10.0596 11.382 10.2022 11.2598 10.2735L7.41109 12.9309C7.35 12.9615 7.28891 12.9818 7.22782 12.9818C7.18709 12.9818 7.15655 12.9716 7.11582 12.9615C7.08527 12.9716 7.04455 12.9818 7.00382 12.9818C6.94273 12.9818 6.88164 12.9615 6.82055 12.9309L2.97182 10.2735C2.83945 10.2022 2.76818 10.0596 2.76818 9.90691V1.43564C2.76818 1.19127 2.96164 1.01818 3.16527 1.01818C3.22636 1.01818 3.29764 1.03855 3.35873 1.07927L7.11582 3.39055L10.8729 1.07927C10.934 1.03855 11.0053 1.01818 11.0664 1.01818ZM11.0664 0C10.8118 0 10.5573 0.0712727 10.3333 0.203636L7.11582 2.18909L3.88818 0.203636C3.66418 0.0712727 3.41982 0 3.15509 0C2.78855 0 2.422 0.152727 2.15727 0.427636C1.89255 0.702545 1.75 1.05891 1.75 1.44582V9.91709C1.75 10.416 2.00455 10.8844 2.422 11.1389L6.24018 13.776C6.26055 13.7964 6.29109 13.8065 6.31145 13.8269C6.52527 13.9491 6.75945 14.0102 7.00382 14.0102C7.04455 14.0102 7.07509 14.0102 7.11582 14.0102C7.15655 14.0102 7.18709 14.0102 7.22782 14.0102C7.47218 14.0102 7.70636 13.9491 7.92018 13.8269C7.94055 13.8167 7.97109 13.7964 7.99146 13.776L11.8096 11.1389C12.2271 10.8742 12.4816 10.416 12.4816 9.91709V1.43564C12.4816 0.641455 11.8504 0 11.0664 0Z" fill="#717171"/>
</g>
<defs>
<clipPath id="clip0">
<rect width="14" height="14" fill="white"/>
</clipPath>
</defs>
</svg>
